<svg width="19" height="19" viewBox="0 0 19 19" fill="none" xmlns="http://www.w3.org/2000/svg">
<path fill-rule="evenodd" clip-rule="evenodd" d="M8.23651 17.7365C3.69326 17.7365 0 14.0432 0 9.49998C0 4.95673 3.69326 1.26343 8.23651 1.26343C10.3199 1.26343 12.2749 2.02011 13.7981 3.41636C13.2915 3.71594 12.8026 4.04778 12.3323 4.40697C11.1782 3.47588 9.74312 2.96325 8.23651 2.96325C4.63591 2.96325 1.69982 5.89938 1.69982 9.49998C1.69982 13.1006 4.63591 16.0367 8.23651 16.0367C13.2464 16.0367 16.2208 10.6815 14.066 6.51778C14.3926 6.21408 14.7287 5.91972 15.0737 5.63517C15.1756 5.55115 15.2783 5.46792 15.3818 5.38552C16.1027 6.63051 16.4732 8.0421 16.4732 9.49994C16.4731 14.0432 12.7798 17.7365 8.23651 17.7365Z" fill="#932A8E"/>
<path fill-rule="evenodd" clip-rule="evenodd" d="M8.45291 13.7341C8.36021 13.7341 8.28294 13.6723 8.25204 13.5951C8.23661 13.5642 6.90759 10.1335 4.85231 8.83547C4.45052 8.58823 4.14152 8.32551 4.26512 7.73827C4.38872 7.16651 4.77508 6.84199 5.47045 6.68745C6.70668 6.42473 8.03565 8.34094 8.53018 9.12909C10.2609 6.61022 13.7224 2.65416 18.7602 2.19056C19.0032 2.16207 19.0931 2.52231 18.8683 2.62325C18.7911 2.65416 11.5898 5.94575 8.66921 13.6105C8.62288 13.6878 8.54561 13.7341 8.45291 13.7341Z" fill="#932A8E"/>
</svg>
