<svg width="30" height="30" viewBox="0 0 30 30" fill="none" xmlns="http://www.w3.org/2000/svg">
<path d="M26.25 23.75H3.75C3.41848 23.75 3.10054 23.8817 2.86612 24.1161C2.6317 24.3505 2.5 24.6685 2.5 25C2.5 25.3315 2.6317 25.6495 2.86612 25.8839C3.10054 26.1183 3.41848 26.25 3.75 26.25H26.25C26.5815 26.25 26.8995 26.1183 27.1339 25.8839C27.3683 25.6495 27.5 25.3315 27.5 25C27.5 24.6685 27.3683 24.3505 27.1339 24.1161C26.8995 23.8817 26.5815 23.75 26.25 23.75Z" fill="#3061AE"/>
<path d="M15 2.5C14.6685 2.5 14.3505 2.6317 14.1161 2.86612C13.8817 3.10054 13.75 3.41848 13.75 3.75V16.9875L9.63749 12.8625C9.40211 12.6271 9.08286 12.4949 8.74999 12.4949C8.41711 12.4949 8.09787 12.6271 7.86249 12.8625C7.62711 13.0979 7.49487 13.4171 7.49487 13.75C7.49487 14.0829 7.62711 14.4021 7.86249 14.6375L14.1125 20.8875C14.2287 21.0047 14.3669 21.0977 14.5193 21.1611C14.6716 21.2246 14.835 21.2572 15 21.2572C15.165 21.2572 15.3284 21.2246 15.4807 21.1611C15.633 21.0977 15.7713 21.0047 15.8875 20.8875L22.1375 14.6375C22.254 14.521 22.3465 14.3826 22.4096 14.2303C22.4726 14.078 22.5051 13.9148 22.5051 13.75C22.5051 13.5852 22.4726 13.422 22.4096 13.2697C22.3465 13.1174 22.254 12.979 22.1375 12.8625C22.0209 12.746 21.8826 12.6535 21.7303 12.5904C21.578 12.5274 21.4148 12.4949 21.25 12.4949C21.0852 12.4949 20.922 12.5274 20.7697 12.5904C20.6174 12.6535 20.479 12.746 20.3625 12.8625L16.25 16.9875V3.75C16.25 3.41848 16.1183 3.10054 15.8839 2.86612C15.6495 2.6317 15.3315 2.5 15 2.5Z" fill="#3061AE"/>
</svg>
