<svg width="24" height="13" viewBox="0 0 24 13" fill="none" xmlns="http://www.w3.org/2000/svg">
<path d="M11.5185 0.480347C12.0944 0.507752 12.6687 0.559463 13.2526 0.664101C15.3645 1.04246 16.484 1.62229 18.7619 2.34806L20.279 8.01017C20.0142 8.25898 19.1929 8.93858 18.0483 9.01725C18.1221 8.82176 18.138 8.59648 18.0931 8.35581C18.0291 8.01228 17.8388 7.63447 17.5137 7.27172C17.3448 7.08332 17.1875 6.95205 17.0002 6.79471L11.7157 2.35637C11.6187 2.27493 11.5159 2.21331 11.4091 2.16929C11.0878 2.03703 10.749 2.07279 10.4334 2.21248C10.1373 2.34352 9.86094 2.56786 9.64341 2.82685C9.02372 3.56464 9.02062 4.66362 7.81866 4.98634C7.66618 5.02731 7.53093 5.0324 7.42651 5.00428C7.34883 4.98341 7.29186 4.94343 7.26579 4.88657C7.17759 4.69451 7.60251 3.93696 7.65655 3.70931C7.71441 3.46581 7.74403 3.20189 7.74248 3.00778C7.72874 1.29099 10.2146 0.559628 11.5185 0.480347Z" fill="white"/>
<path d="M11.8835 12.2404C11.8162 12.3436 11.7256 12.4139 11.6214 12.4545C11.5115 12.4975 11.3837 12.5088 11.2491 12.4921C11.0698 12.4697 10.8824 12.3982 10.7094 12.2854L3.78503 7.76793L5.23541 2.35512L7.8129 1.61401C7.4966 2.00018 7.30344 2.46341 7.30781 3.01124C7.30909 3.17058 7.28301 3.3947 7.23213 3.60879C7.11819 4.08841 6.64499 4.57656 6.87032 5.06731C6.95403 5.24951 7.11066 5.37059 7.31401 5.42529C7.49062 5.47285 7.70389 5.46842 7.93116 5.40736C9.37052 5.02091 9.31294 3.89763 9.97748 3.10641C10.1546 2.89548 10.3759 2.71443 10.609 2.61135C10.8225 2.51684 11.0444 2.48949 11.2438 2.5716C11.3085 2.59823 11.3729 2.63737 11.4362 2.69052L15.719 6.28754C16.1613 6.65903 16.7907 7.11618 17.1898 7.56153C17.4593 7.86221 17.6152 8.16555 17.6653 8.43424C17.7602 8.94276 17.4763 9.2275 16.9928 9.25346C16.7774 9.26503 16.5166 9.22705 16.2117 9.12712L13.5117 6.70836C13.4222 6.62836 13.2848 6.636 13.2048 6.72542C13.1248 6.81483 13.1325 6.95219 13.2219 7.03219L15.8954 9.42731C16.0981 11.1295 14.6511 10.7475 14.3906 10.6656L11.9183 8.41812C11.8294 8.33718 11.6916 8.34366 11.6107 8.43263C11.5297 8.52154 11.5362 8.65935 11.6252 8.74029L13.9913 10.8913C14.2096 11.257 13.414 12.2838 12.346 11.6982L10.3191 9.95277C10.2282 9.87415 10.0909 9.88406 10.0122 9.97491C9.93369 10.0658 9.9436 10.2031 10.0345 10.2817L11.9581 11.9382C12.0338 12.0035 11.9287 12.171 11.8835 12.2404Z" fill="white"/>
<path d="M3.33346 7.76947C3.32244 7.793 3.31596 7.81775 3.31386 7.84267L3.22793 8.16322C3.17633 8.356 3.05032 8.51025 2.88899 8.60348C2.88384 8.60647 2.87853 8.60924 2.87365 8.61256C2.71548 8.69871 2.52514 8.72694 2.338 8.67678L0.538497 8.19462C0.535342 8.19378 0.532186 8.19273 0.52903 8.19201C0.340127 8.13875 0.189259 8.01446 0.0979634 7.85623C0.00484053 7.69501 -0.0270493 7.49819 0.0247717 7.3048C0.0257129 7.30115 0.0268755 7.29749 0.027706 7.29378L1.83768 0.538835C1.88928 0.346056 2.01529 0.191811 2.17662 0.0985775C2.18177 0.0955878 2.18708 0.0928753 2.19195 0.0894981C2.35019 0.0033512 2.54053 -0.0248847 2.72766 0.0252754L4.52728 0.507444C4.72 0.559098 4.8743 0.685108 4.96748 0.846439C4.97052 0.851644 4.97329 0.856903 4.97661 0.861775C5.06276 1.02001 5.09094 1.21035 5.04084 1.39748L4.85625 2.08638C4.84451 2.11068 4.83726 2.13726 4.83527 2.16466L3.33346 7.76947Z" fill="white"/>
<path d="M20.7478 8.07515C20.7493 8.03246 20.7382 7.9895 20.7148 7.95219L19.1701 2.1871C19.1713 2.14425 19.1597 2.10261 19.1379 2.06712L18.9584 1.39699C18.9082 1.20986 18.9365 1.01952 19.0226 0.861287C19.0259 0.856471 19.0291 0.851377 19.0321 0.846228C19.1254 0.684896 19.2792 0.558666 19.4719 0.507011L21.2716 0.0247871C21.4587 -0.025373 21.649 0.00286292 21.8073 0.0890098C21.8121 0.0923871 21.8171 0.0955431 21.8223 0.0985328C21.9837 0.191766 22.1099 0.345623 22.1615 0.538347L23.9756 7.3083C24.0257 7.49543 23.9975 7.68577 23.9113 7.844C23.908 7.84888 23.9047 7.85386 23.9018 7.85906C23.8086 8.0204 23.6547 8.14663 23.4619 8.19828L21.6623 8.6805C21.4752 8.73061 21.2848 8.70243 21.1266 8.61628C21.1218 8.61291 21.1168 8.60969 21.1116 8.6067C20.9502 8.51353 20.824 8.35967 20.7723 8.16689L20.7478 8.07515Z" fill="white"/>
</svg>
