<svg width="26" height="26" viewBox="0 0 26 26" fill="none" xmlns="http://www.w3.org/2000/svg">
<path d="M13 0C7.80789 0 3.5838 4.22409 3.5838 9.41616C3.5838 15.8597 12.0104 25.3192 12.3692 25.7187C12.7061 26.094 13.2945 26.0934 13.6309 25.7187C13.9896 25.3192 22.4162 15.8597 22.4162 9.41616C22.4161 4.22409 18.1921 0 13 0ZM13 14.1537C10.3877 14.1537 8.26253 12.0285 8.26253 9.41616C8.26253 6.80387 10.3878 4.67868 13 4.67868C15.6123 4.67868 17.7374 6.80393 17.7374 9.41621C17.7374 12.0285 15.6123 14.1537 13 14.1537Z" fill="#932A8E"/>
</svg>
