<svg width="26" height="23" viewBox="0 0 26 23" fill="none" xmlns="http://www.w3.org/2000/svg">
<path d="M15.158 2.30627C14.3796 1.03258 12.7164 0.630835 11.4432 1.40896C10.1699 2.18708 9.7687 3.85041 10.5471 5.1241L19.9799 20.5593C20.7582 21.833 22.4214 22.2347 23.6947 21.4566C24.968 20.6785 25.3692 19.0152 24.5908 17.7415L15.158 2.30627Z" fill="white"/>
<path d="M15.3051 17.8671C15.1504 17.5634 14.9659 17.2706 14.7833 16.9813L10.6945 10.5046C10.3553 9.96228 10.005 9.41999 9.50179 9.01327C8.94301 8.59491 8.25189 8.37757 7.54633 8.39833C6.84077 8.4191 6.1645 8.67669 5.63291 9.12715C5.28812 9.4603 4.98988 9.83587 4.74582 10.2443C4.2911 10.9444 3.85625 11.6572 3.44128 12.3827C2.69583 13.7113 2.23552 15.0454 2.69583 16.5403C2.88769 17.1681 3.20627 17.7527 3.63305 18.26C4.05984 18.7674 4.58632 19.1875 5.18191 19.4958L5.21732 19.5139C6.27213 20.0326 7.47976 20.1718 8.57184 20.6111C9.95838 21.166 11.2126 22.2145 12.7128 22.209C13.2057 22.2043 13.6901 22.084 14.1246 21.8583C14.5592 21.6326 14.931 21.3083 15.2082 20.913C15.6271 20.2948 15.7845 19.5439 15.648 18.8161C15.5793 18.486 15.4639 18.1666 15.3051 17.8671Z" fill="white"/>
<path d="M1.7817 15.9312C1.30586 16.6051 0.866904 17.2985 0.464835 18.0113C0.118098 18.6247 -0.0884695 19.2262 0.0369462 19.9236C0.15983 20.6141 0.563391 21.2345 1.16433 21.6567C1.76528 22.0788 2.51774 22.2705 3.2664 22.1922C4.35272 22.0774 5.26937 21.4229 6.27822 21.0356C5.09051 20.6376 4.02554 19.9758 3.17603 19.108C2.3255 18.2332 1.83209 17.109 1.7817 15.9312Z" fill="white"/>
</svg>
