<svg width="31" height="31" viewBox="0 0 31 31" fill="none" xmlns="http://www.w3.org/2000/svg">
<path d="M30.803 14.897C30.526 14.5182 23.9274 5.62085 15.4998 5.62085C7.07225 5.62085 0.473356 14.5182 0.196717 14.8966C-0.0655724 15.2561 -0.0655724 15.7435 0.196717 16.1029C0.473356 16.4818 7.07225 25.3791 15.4998 25.3791C23.9274 25.3791 30.526 16.4817 30.803 16.1032C31.0656 15.7439 31.0656 15.2561 30.803 14.897ZM15.4998 23.3351C9.29203 23.3351 3.91539 17.4298 2.32379 15.4993C3.91333 13.567 9.2787 7.6648 15.4998 7.6648C21.7074 7.6648 27.0836 13.5691 28.6759 15.5007C27.0864 17.4328 21.721 23.3351 15.4998 23.3351Z" fill="white"/>
<path d="M15.4998 9.36816C12.1188 9.36816 9.36792 12.119 9.36792 15.5001C9.36792 18.8811 12.1188 21.632 15.4998 21.632C18.8809 21.632 21.6317 18.8811 21.6317 15.5001C21.6317 12.119 18.8809 9.36816 15.4998 9.36816ZM15.4998 19.588C13.2457 19.588 11.4119 17.7542 11.4119 15.5001C11.4119 13.246 13.2457 11.4122 15.4998 11.4122C17.7539 11.4122 19.5877 13.246 19.5877 15.5001C19.5877 17.7542 17.754 19.588 15.4998 19.588Z" fill="white"/>
</svg>
