<svg width="39" height="39" viewBox="0 0 39 39" fill="none" xmlns="http://www.w3.org/2000/svg">
<g clip-path="url(#clip0_0_18)">
<path d="M36.3413 31.9091H30.1369C26.2271 31.9091 23.0461 28.7282 23.0461 24.8184C23.0461 20.9086 26.2271 17.7276 30.1369 17.7276H36.3413C36.8313 17.7276 37.2277 17.3312 37.2277 16.8412V14.1822C37.2277 12.3235 35.786 10.8119 33.9645 10.6654L28.8741 1.77416C28.4023 0.951851 27.6406 0.364118 26.7291 0.120067C25.822 -0.122322 24.8734 0.00498032 24.0615 0.477543L6.6112 10.6368H3.5464C1.59109 10.6368 0.000976562 12.2268 0.000976562 14.1822V35.4546C0.000976562 37.4099 1.591 39 3.5464 39H33.6823C35.6376 39 37.2277 37.41 37.2277 35.4546V32.7955C37.2277 32.3056 36.8313 31.9091 36.3413 31.9091ZM29.9733 7.26343L31.9046 10.6368H24.1792L29.9733 7.26343ZM10.1344 10.6368L24.9538 2.00957C25.3546 1.77499 25.8228 1.71267 26.2704 1.83216C26.7231 1.95331 27.1005 2.24589 27.3351 2.6553L27.3369 2.65854L13.6337 10.6368H10.1344Z" fill="white"/>
<path d="M36.341 19.5003H30.1366C27.204 19.5003 24.8185 21.8858 24.8185 24.8184C24.8185 27.751 27.204 30.1365 30.1366 30.1365H36.341C37.8073 30.1365 39.0001 28.9437 39.0001 27.4774V22.1593C39.0001 20.693 37.8073 19.5003 36.341 19.5003ZM30.1366 26.591C29.1594 26.591 28.3639 25.7956 28.3639 24.8184C28.3639 23.8412 29.1594 23.0457 30.1366 23.0457C31.1138 23.0457 31.9092 23.8412 31.9092 24.8184C31.9093 25.7956 31.1139 26.591 30.1366 26.591Z" fill="white"/>
</g>
<defs>
<clipPath id="clip0_0_18">
<rect width="39" height="39" fill="white"/>
</clipPath>
</defs>
</svg>
