<svg width="37" height="37" viewBox="0 0 37 37" fill="none" xmlns="http://www.w3.org/2000/svg">
<g clip-path="url(#clip0_0_647)">
<path fill-rule="evenodd" clip-rule="evenodd" d="M27.75 37H9.25C6.79678 36.9999 4.44407 36.0253 2.70938 34.2906C0.974693 32.5559 0.000107321 30.2032 0 27.75L0 9.25C0.000107321 6.79678 0.974693 4.44407 2.70938 2.70938C4.44407 0.974693 6.79678 0.000107321 9.25 0L27.75 0C30.2033 0 32.556 0.974551 34.2907 2.70926C36.0254 4.44397 37 6.79675 37 9.25V27.75C37 30.2033 36.0254 32.556 34.2907 34.2907C32.556 36.0254 30.2033 37 27.75 37Z" fill="#00D264"/>
<path fill-rule="evenodd" clip-rule="evenodd" d="M17.3438 10.4062H27.75C29.0839 10.4062 30.3668 9.89383 31.3338 8.97505C32.3008 8.05627 32.8781 6.80121 32.9463 5.46907C33.0146 4.13692 32.5687 2.82943 31.7006 1.81662C30.8326 0.803807 29.6088 0.163021 28.2819 0.0265938C28.105 0.0167656 27.9298 0 27.75 0H9.25C6.79678 0.000107321 4.44407 0.974693 2.70938 2.70938C0.974693 4.44407 0.000107321 6.79678 0 9.25L0 27.75C0.000107325 23.1502 1.82742 18.7388 5.07999 15.4862C8.33255 12.2337 12.7439 10.4064 17.3438 10.4062Z" fill="#00EB78"/>
<path fill-rule="evenodd" clip-rule="evenodd" d="M27.75 18.5C25.9205 18.5 24.1321 19.0425 22.611 20.0589C21.0898 21.0753 19.9042 22.52 19.2041 24.2102C18.504 25.9004 18.3208 27.7603 18.6777 29.5546C19.0347 31.3489 19.9156 32.9971 21.2093 34.2907C22.5029 35.5844 24.1511 36.4654 25.9454 36.8223C27.7397 37.1792 29.5996 36.996 31.2898 36.2959C32.98 35.5958 34.4247 34.4102 35.4411 32.889C36.4575 31.3679 37 29.5795 37 27.75V9.25C37 11.7033 36.0255 14.056 34.2907 15.7907C32.556 17.5254 30.2033 18.5 27.75 18.5Z" fill="#00B950"/>
<path fill-rule="evenodd" clip-rule="evenodd" d="M12.5297 27.2254C12.6836 27.1817 12.8448 27.1703 13.0034 27.192C13.1619 27.2137 13.3142 27.268 13.4506 27.3515C15.7493 28.721 18.4691 29.2034 21.0986 28.7081C23.728 28.2127 26.0859 26.7738 27.7287 24.6618C29.3715 22.5498 30.186 19.9103 30.0191 17.2398C29.8522 14.5694 28.7154 12.0519 26.8223 10.1609C24.9293 8.26988 22.4106 7.13568 19.74 6.97162C17.0693 6.80755 14.4307 7.62491 12.3205 9.26997C10.2103 10.915 8.77378 13.2744 8.28124 15.9044C7.78871 18.5344 8.27405 21.2537 9.64599 23.5509C9.72918 23.6869 9.78323 23.8388 9.80473 23.9968C9.82622 24.1548 9.81469 24.3156 9.77086 24.4689C9.44885 25.6084 8.67185 28.3279 8.67185 28.3279C8.67185 28.3279 11.3913 27.5509 12.5297 27.2254ZM7.64221 24.7054C5.9893 21.9191 5.41041 18.6252 6.01424 15.4423C6.61806 12.2594 8.36307 9.4064 10.9216 7.41904C13.4801 5.43169 16.6761 4.44669 19.9094 4.64902C23.1428 4.85135 26.1911 6.22708 28.4819 8.51788C30.7727 10.8087 32.1484 13.857 32.3507 17.0903C32.5531 20.3237 31.5681 23.5197 29.5807 26.0782C27.5934 28.6367 24.7404 30.3817 21.5575 30.9855C18.3745 31.5894 15.0807 31.0105 12.2944 29.3576C12.2944 29.3576 8.60768 30.4109 6.78196 30.933C6.68278 30.9612 6.57785 30.9624 6.47804 30.9365C6.37824 30.9106 6.28716 30.8584 6.21425 30.7855C6.14133 30.7126 6.08922 30.6215 6.0633 30.5217C6.03738 30.4219 6.03859 30.317 6.06682 30.2178C6.58886 28.3921 7.64221 24.7054 7.64221 24.7054Z" fill="white"/>
<path fill-rule="evenodd" clip-rule="evenodd" d="M12.7077 14.3293C12.8876 16.918 13.9924 19.3557 15.8205 21.1974C17.6486 23.0391 20.078 24.1619 22.6653 24.3609H22.6665C23.0796 24.3929 23.4947 24.335 23.8833 24.1913C24.2719 24.0476 24.6248 23.8215 24.9177 23.5284L25.3212 23.1249C25.5117 22.9342 25.6188 22.6758 25.619 22.4063V21.5495C25.619 21.4421 25.589 21.3368 25.5326 21.2454C25.4761 21.154 25.3953 21.0802 25.2993 21.0321C24.6905 20.728 23.3689 20.0672 22.7214 19.7434C22.6128 19.6891 22.4899 19.6704 22.3701 19.6898C22.2503 19.7092 22.1396 19.7658 22.0537 19.8515C21.7311 20.1741 21.2212 20.6846 20.9321 20.9731C20.8648 21.0404 20.782 21.0901 20.6909 21.1177C20.5999 21.1453 20.5034 21.1501 20.4101 21.1315L20.4049 21.1304C19.2856 20.9065 18.2577 20.3564 17.4506 19.5493C16.6435 18.7422 16.0933 17.7142 15.8695 16.595L15.8683 16.5898C15.8498 16.4964 15.8545 16.4 15.8822 16.3089C15.9098 16.2178 15.9594 16.135 16.0267 16.0677C16.3152 15.7787 16.8257 15.2687 17.1483 14.9462C17.2341 14.8603 17.2907 14.7496 17.3101 14.6297C17.3295 14.5099 17.3107 14.387 17.2564 14.2784C16.9327 13.6309 16.2719 12.3093 15.9678 11.7006C15.9197 11.6045 15.8458 11.5237 15.7544 11.4673C15.6631 11.4108 15.5578 11.3809 15.4503 11.3809H14.7219C14.5489 11.3809 14.3779 11.4173 14.2199 11.4876C14.0618 11.5579 13.9203 11.6606 13.8044 11.789C13.6882 11.9185 13.5547 12.0665 13.4205 12.2157C13.1681 12.4958 12.9747 12.8239 12.8517 13.1803C12.7287 13.5368 12.6788 13.9144 12.7048 14.2906C12.706 14.3033 12.7066 14.316 12.7077 14.3293Z" fill="white"/>
</g>
<defs>
<clipPath id="clip0_0_647">
<rect width="37" height="37" fill="white"/>
</clipPath>
</defs>
</svg>
